{
	"asset":{
		"generator":"Khronos glTF Blender I/O v3.6.27",
		"version":"2.0"
	},
	"scene":0,
	"scenes":[
		{
			"name":"Scene",
			"nodes":[
				0,
				1,
				2,
				3,
				4
			]
		}
	],
	"nodes":[
		{
			"mesh":0,
			"name":"Cylinder.001_LOW",
			"rotation":[
				0,
				0,
				-0.7071068286895752,
				0.7071068286895752
			]
		},
		{
			"mesh":1,
			"name":"Plane_LOW",
			"rotation":[
				0,
				0,
				-0.7071068286895752,
				0.7071068286895752
			]
		},
		{
			"mesh":2,
			"name":"Cube.001_LOW",
			"translation":[
				0,
				0.1334322988986969,
				0.9056970477104187
			]
		},
		{
			"mesh":3,
			"name":"Cylinder_LOW",
			"translation":[
				0,
				2.056262969970703,
				1.0908172130584717
			]
		},
		{
			"mesh":4,
			"name":"Circle_LOW",
			"rotation":[
				0.5365437269210815,
				-0.46056583523750305,
				0.46056583523750305,
				0.5365437269210815
			],
			"translation":[
				0,
				1.6519073247909546,
				1.100102424621582
			]
		}
	],
	"materials":[
		{
			"doubleSided":true,
			"name":"METAL",
			"pbrMetallicRoughness":{}
		}
	],
	"meshes":[
		{
			"name":"Cylinder.003",
			"primitives":[
				{
					"attributes":{
						"POSITION":0,
						"NORMAL":1,
						"TEXCOORD_0":2
					},
					"indices":3,
					"material":0
				}
			]
		},
		{
			"name":"Plane.001",
			"primitives":[
				{
					"attributes":{
						"POSITION":4,
						"NORMAL":5,
						"TEXCOORD_0":6
					},
					"indices":7,
					"material":0
				}
			]
		},
		{
			"name":"Cube.001",
			"primitives":[
				{
					"attributes":{
						"POSITION":8,
						"NORMAL":9,
						"TEXCOORD_0":10
					},
					"indices":11,
					"material":0
				}
			]
		},
		{
			"name":"Cylinder.004",
			"primitives":[
				{
					"attributes":{
						"POSITION":12,
						"NORMAL":13,
						"TEXCOORD_0":14
					},
					"indices":15,
					"material":0
				}
			]
		},
		{
			"name":"Circle.001",
			"primitives":[
				{
					"attributes":{
						"POSITION":16,
						"NORMAL":17,
						"TEXCOORD_0":18
					},
					"indices":19,
					"material":0
				}
			]
		}
	],
	"accessors":[
		{
			"bufferView":0,
			"componentType":5126,
			"count":2950,
			"max":[
				2.8160927295684814,
				1.413016438484192,
				4.2298078536987305
			],
			"min":[
				-2.1724956035614014,
				-1.413016438484192,
				-3.7516396045684814
			],
			"type":"VEC3"
		},
		{
			"bufferView":1,
			"componentType":5126,
			"count":2950,
			"type":"VEC3"
		},
		{
			"bufferView":2,
			"componentType":5126,
			"count":2950,
			"type":"VEC2"
		},
		{
			"bufferView":3,
			"componentType":5123,
			"count":9384,
			"type":"SCALAR"
		},
		{
			"bufferView":4,
			"componentType":5126,
			"count":296,
			"max":[
				2.608417510986328,
				0.47752729058265686,
				1.9665483236312866
			],
			"min":[
				-3.4237964153289795,
				-0.47752729058265686,
				-2.1577978134155273
			],
			"type":"VEC3"
		},
		{
			"bufferView":5,
			"componentType":5126,
			"count":296,
			"type":"VEC3"
		},
		{
			"bufferView":6,
			"componentType":5126,
			"count":296,
			"type":"VEC2"
		},
		{
			"bufferView":7,
			"componentType":5123,
			"count":816,
			"type":"SCALAR"
		},
		{
			"bufferView":8,
			"componentType":5126,
			"count":461,
			"max":[
				0.3167434632778168,
				3.3537240028381348,
				2.3605289459228516
			],
			"min":[
				-0.3167434632778168,
				2.5948102474212646,
				-2.3605289459228516
			],
			"type":"VEC3"
		},
		{
			"bufferView":9,
			"componentType":5126,
			"count":461,
			"type":"VEC3"
		},
		{
			"bufferView":10,
			"componentType":5126,
			"count":461,
			"type":"VEC2"
		},
		{
			"bufferView":11,
			"componentType":5123,
			"count":1524,
			"type":"SCALAR"
		},
		{
			"bufferView":12,
			"componentType":5126,
			"count":196,
			"max":[
				1,
				0.0732569694519043,
				1
			],
			"min":[
				-1,
				-0.36898887157440186,
				-1
			],
			"type":"VEC3"
		},
		{
			"bufferView":13,
			"componentType":5126,
			"count":196,
			"type":"VEC3"
		},
		{
			"bufferView":14,
			"componentType":5126,
			"count":196,
			"type":"VEC2"
		},
		{
			"bufferView":15,
			"componentType":5123,
			"count":564,
			"type":"SCALAR"
		},
		{
			"bufferView":16,
			"componentType":5126,
			"count":2325,
			"max":[
				0.9264597296714783,
				0.926459550857544,
				3.0446279048919678
			],
			"min":[
				-0.9264594316482544,
				-0.926459550857544,
				-0.26337549090385437
			],
			"type":"VEC3"
		},
		{
			"bufferView":17,
			"componentType":5126,
			"count":2325,
			"type":"VEC3"
		},
		{
			"bufferView":18,
			"componentType":5126,
			"count":2325,
			"type":"VEC2"
		},
		{
			"bufferView":19,
			"componentType":5123,
			"count":12732,
			"type":"SCALAR"
		}
	],
	"bufferViews":[
		{
			"buffer":0,
			"byteLength":35400,
			"byteOffset":0,
			"target":34962
		},
		{
			"buffer":0,
			"byteLength":35400,
			"byteOffset":35400,
			"target":34962
		},
		{
			"buffer":0,
			"byteLength":23600,
			"byteOffset":70800,
			"target":34962
		},
		{
			"buffer":0,
			"byteLength":18768,
			"byteOffset":94400,
			"target":34963
		},
		{
			"buffer":0,
			"byteLength":3552,
			"byteOffset":113168,
			"target":34962
		},
		{
			"buffer":0,
			"byteLength":3552,
			"byteOffset":116720,
			"target":34962
		},
		{
			"buffer":0,
			"byteLength":2368,
			"byteOffset":120272,
			"target":34962
		},
		{
			"buffer":0,
			"byteLength":1632,
			"byteOffset":122640,
			"target":34963
		},
		{
			"buffer":0,
			"byteLength":5532,
			"byteOffset":124272,
			"target":34962
		},
		{
			"buffer":0,
			"byteLength":5532,
			"byteOffset":129804,
			"target":34962
		},
		{
			"buffer":0,
			"byteLength":3688,
			"byteOffset":135336,
			"target":34962
		},
		{
			"buffer":0,
			"byteLength":3048,
			"byteOffset":139024,
			"target":34963
		},
		{
			"buffer":0,
			"byteLength":2352,
			"byteOffset":142072,
			"target":34962
		},
		{
			"buffer":0,
			"byteLength":2352,
			"byteOffset":144424,
			"target":34962
		},
		{
			"buffer":0,
			"byteLength":1568,
			"byteOffset":146776,
			"target":34962
		},
		{
			"buffer":0,
			"byteLength":1128,
			"byteOffset":148344,
			"target":34963
		},
		{
			"buffer":0,
			"byteLength":27900,
			"byteOffset":149472,
			"target":34962
		},
		{
			"buffer":0,
			"byteLength":27900,
			"byteOffset":177372,
			"target":34962
		},
		{
			"buffer":0,
			"byteLength":18600,
			"byteOffset":205272,
			"target":34962
		},
		{
			"buffer":0,
			"byteLength":25464,
			"byteOffset":223872,
			"target":34963
		}
	],
	"buffers":[
		{
			"byteLength":249336,
			"uri":"data:application/octet-stream;base64,"
		}
	]
}
